<svg width="24" height="24" viewBox="0 0 24 24" fill="none" xmlns="http://www.w3.org/2000/svg">
<path d="M13.0892 6C12.8725 6.04141 12.6586 6.14826 12.4585 6.23117C11.4626 6.64387 10.4878 7.10493 9.52486 7.58319C7.47901 8.59933 5.45627 9.70864 3.54026 10.9352C3.07466 11.2333 2.37557 11.5401 2.00377 11.9545C1.95284 12.0112 2.43361 12.124 2.53182 12.1646C5.99509 13.5964 9.1519 15.7392 12.0698 18M4.04617 11.5482C7.04335 11.5482 10.0406 11.5417 13.0378 11.5482C15.5461 11.5536 18.0818 11.588 20.5772 11.8494C21.0379 11.8976 21.5363 11.9895 22 11.9895" stroke="#5790B4" stroke-width="2.0688" stroke-linecap="round"/>
</svg>
