<svg width="280" height="210" viewBox="0 0 280 210" fill="none" xmlns="http://www.w3.org/2000/svg">
<path d="M59.3553 164.221C59.5476 163.661 59.7916 163.133 60.0523 162.598C60.7897 161.083 61.4219 159.524 62.2268 158.039C62.5423 157.457 62.9149 156.896 63.2173 156.309C63.2678 156.211 63.3377 155.92 63.3808 156.021C63.5052 156.313 63.7495 156.537 63.9511 156.786C64.6931 157.699 65.4345 158.614 66.1989 159.512C66.831 160.254 67.4281 161.032 67.9999 161.808C68.2481 162.145 68.4254 162.528 68.6469 162.88C68.7671 163.071 68.9297 163.251 69.0204 163.444C69.1169 163.649 69.2675 163.82 69.4073 163.995C69.4327 164.027 69.089 164.49 69.0704 164.519C68.5581 165.311 68.0179 166.089 67.5496 166.906C66.6372 168.498 65.578 170.001 64.7915 171.656C64.6279 172.001 64.475 172.502 64.1912 172.769C64.0112 172.938 63.9631 172.915 63.7109 172.756C63.1505 172.402 62.8072 171.753 62.4903 171.214C62.0493 170.465 61.687 169.662 61.1429 168.971C60.3454 167.959 59.6294 166.904 59.0685 165.756C58.896 165.403 58.7522 164.895 58.4548 164.616M66.9467 174.862C67.1389 174.302 67.383 173.775 67.6437 173.239C68.3811 171.725 69.0133 170.166 69.8182 168.68C70.1337 168.098 70.5063 167.538 70.8087 166.951C70.8592 166.853 70.9291 166.561 70.9721 166.663C71.0966 166.955 71.3409 167.179 71.5424 167.427C72.2845 168.341 73.0259 169.255 73.7903 170.153C74.4224 170.895 75.0195 171.674 75.5912 172.45C75.8395 172.787 76.0168 173.169 76.2383 173.521C76.3585 173.712 76.5211 173.893 76.6118 174.085C76.7082 174.29 76.8588 174.462 76.9987 174.637C77.0241 174.669 76.6803 175.131 76.6618 175.16C76.1495 175.953 75.6092 176.731 75.141 177.548C74.2286 179.14 73.1694 180.643 72.3829 182.298C72.2193 182.642 72.0664 183.143 71.7826 183.41C71.6026 183.579 71.5544 183.557 71.3023 183.398C70.7418 183.044 70.3985 182.394 70.0816 181.856C69.6407 181.107 69.2784 180.303 68.7343 179.613C67.9368 178.6 67.2208 177.545 66.6598 176.398C66.4874 176.045 66.3436 175.537 66.0462 175.257M51.9005 176.525C52.0928 175.965 52.3368 175.438 52.5975 174.902C53.3349 173.388 53.9671 171.829 54.772 170.343C55.0875 169.761 55.4601 169.201 55.7625 168.614C55.813 168.516 55.8829 168.225 55.9259 168.326C56.0504 168.618 56.2947 168.842 56.4963 169.09C57.2383 170.004 57.9797 170.918 58.7441 171.816C59.3762 172.558 59.9733 173.337 60.5451 174.113C60.7933 174.45 60.9706 174.832 61.1921 175.184C61.3123 175.376 61.4749 175.556 61.5656 175.748C61.6621 175.953 61.8127 176.125 61.9525 176.3C61.9779 176.332 61.6341 176.794 61.6156 176.823C61.1033 177.616 60.5631 178.394 60.0948 179.211C59.1824 180.803 58.1232 182.306 57.3367 183.961C57.1731 184.305 57.0202 184.806 56.7364 185.073C56.5564 185.242 56.5082 185.22 56.2561 185.061C55.6957 184.707 55.3523 184.057 55.0355 183.519C54.5945 182.77 54.2322 181.966 53.6881 181.276C52.8906 180.263 52.1746 179.208 51.6137 178.061C51.4412 177.708 51.2974 177.2 51 176.92M59.8661 187.335C60.0584 186.775 60.3024 186.248 60.5631 185.712C61.3005 184.197 61.9327 182.639 62.7376 181.153C63.0531 180.571 63.4257 180.011 63.7281 179.424C63.7786 179.326 63.8485 179.034 63.8916 179.135C64.016 179.428 64.2604 179.652 64.4619 179.9C65.2039 180.813 65.9453 181.728 66.7097 182.626C67.3419 183.368 67.9389 184.147 68.5107 184.923C68.759 185.259 68.9362 185.642 69.1577 185.994C69.2779 186.185 69.4405 186.365 69.5312 186.558C69.6277 186.763 69.7783 186.934 69.9181 187.11C69.9436 187.141 69.5998 187.604 69.5813 187.633C69.069 188.426 68.5287 189.204 68.0604 190.02C67.148 191.612 66.0889 193.115 65.3023 194.771C65.1387 195.115 64.9858 195.616 64.702 195.883C64.522 196.052 64.4739 196.029 64.2217 195.87C63.6613 195.517 63.318 194.867 63.0011 194.329C62.5601 193.58 62.1979 192.776 61.6537 192.085C60.8562 191.073 60.1402 190.018 59.5793 188.871C59.4068 188.518 59.263 188.009 58.9656 187.73" stroke="#9747FF" stroke-width="2.5" stroke-linecap="round"/>
<path d="M203.355 12.2209C203.548 11.6608 203.792 11.1334 204.052 10.5978C204.79 9.08314 205.422 7.52424 206.227 6.03886C206.542 5.45665 206.915 4.89645 207.217 4.30927C207.268 4.21127 207.338 3.91992 207.381 4.021C207.505 4.31328 207.75 4.53745 207.951 4.78553C208.693 5.69905 209.435 6.61384 210.199 7.51151C210.831 8.25386 211.428 9.03234 212 9.80823C212.248 10.1451 212.425 10.5277 212.647 10.8798C212.767 11.0709 212.93 11.251 213.02 11.4438C213.117 11.6489 213.267 11.8201 213.407 11.9953C213.433 12.0272 213.089 12.4899 213.07 12.5185C212.558 13.3113 212.018 14.0892 211.55 14.9061C210.637 16.4982 209.578 18.001 208.792 19.6562C208.628 20.0005 208.475 20.5019 208.191 20.7686C208.011 20.9376 207.963 20.9151 207.711 20.756C207.15 20.4025 206.807 19.7527 206.49 19.2144C206.049 18.4654 205.687 17.6616 205.143 16.971C204.345 15.9589 203.629 14.9039 203.068 13.7562C202.896 13.4034 202.752 12.8951 202.455 12.6157M210.947 22.8624C211.139 22.3024 211.383 21.775 211.644 21.2394C212.381 19.7247 213.013 18.1658 213.818 16.6804C214.134 16.0982 214.506 15.538 214.809 14.9508C214.859 14.8528 214.929 14.5615 214.972 14.6626C215.097 14.9548 215.341 15.179 215.542 15.4271C216.284 16.3406 217.026 17.2554 217.79 18.1531C218.422 18.8954 219.019 19.6739 219.591 20.4498C219.84 20.7867 220.017 21.1692 220.238 21.5214C220.358 21.7125 220.521 21.8925 220.612 22.0854C220.708 22.2904 220.859 22.4617 220.999 22.6368C221.024 22.6687 220.68 23.1315 220.662 23.1601C220.15 23.9528 219.609 24.7307 219.141 25.5477C218.229 27.1397 217.169 28.6426 216.383 30.2978C216.219 30.6421 216.066 31.1435 215.783 31.4101C215.603 31.5792 215.554 31.5566 215.302 31.3976C214.742 31.044 214.399 30.3943 214.082 29.856C213.641 29.1069 213.278 28.3031 212.734 27.6125C211.937 26.6004 211.221 25.5454 210.66 24.3978C210.487 24.0449 210.344 23.5366 210.046 23.2572M195.9 24.5255C196.093 23.9654 196.337 23.438 196.598 22.9024C197.335 21.3877 197.967 19.8288 198.772 18.3434C199.087 17.7612 199.46 17.201 199.763 16.6139C199.813 16.5159 199.883 16.2245 199.926 16.3256C200.05 16.6179 200.295 16.842 200.496 17.0901C201.238 18.0036 201.98 18.9184 202.744 19.8161C203.376 20.5584 203.973 21.3369 204.545 22.1128C204.793 22.4497 204.971 22.8323 205.192 23.1844C205.312 23.3755 205.475 23.5556 205.566 23.7484C205.662 23.9535 205.813 24.1247 205.952 24.2999C205.978 24.3318 205.634 24.7945 205.616 24.8231C205.103 25.6159 204.563 26.3938 204.095 27.2107C203.182 28.8027 202.123 30.3056 201.337 31.9608C201.173 32.3051 201.02 32.8065 200.736 33.0731C200.556 33.2422 200.508 33.2197 200.256 33.0606C199.696 32.7071 199.352 32.0573 199.035 31.519C198.595 30.77 198.232 29.9662 197.688 29.2756C196.891 28.2635 196.175 27.2084 195.614 26.0608C195.441 25.7079 195.297 25.1997 195 24.9203M203.866 35.3352C204.058 34.7751 204.302 34.2477 204.563 33.7121C205.301 32.1975 205.933 30.6386 206.738 29.1532C207.053 28.571 207.426 28.0108 207.728 27.4236C207.779 27.3256 207.849 27.0342 207.892 27.1353C208.016 27.4276 208.26 27.6518 208.462 27.8998C209.204 28.8134 209.945 29.7282 210.71 30.6258C211.342 31.3682 211.939 32.1467 212.511 32.9225C212.759 33.2595 212.936 33.642 213.158 33.9941C213.278 34.1852 213.441 34.3653 213.531 34.5581C213.628 34.7632 213.778 34.9344 213.918 35.1096C213.944 35.1415 213.6 35.6042 213.581 35.6329C213.069 36.4256 212.529 37.2035 212.06 38.0204C211.148 39.6125 210.089 41.1153 209.302 42.7705C209.139 43.1149 208.986 43.6162 208.702 43.8829C208.522 44.0519 208.474 44.0294 208.222 43.8703C207.661 43.5168 207.318 42.867 207.001 42.3287C206.56 41.5797 206.198 40.7759 205.654 40.0853C204.856 39.0732 204.14 38.0182 203.579 36.8705C203.407 36.5177 203.263 36.0094 202.966 35.73" stroke="#9747FF" stroke-width="2.5" stroke-linecap="round"/>
<g filter="url(#filter0_d_371_124)">
<path d="M200.125 189.066L196 167L214.414 178.289L205.187 180.39L200.125 189.066Z" fill="#A960F8"/>
<path fill-rule="evenodd" clip-rule="evenodd" d="M205.187 180.39L214.414 178.289L196 167L200.125 189.066L205.187 180.39ZM200.676 185.89L204.462 179.402L211.473 177.805L197.571 169.283L200.676 185.89Z" fill="white"/>
</g>
<rect width="69" height="20.7456" transform="translate(211 189.254)" fill="#A960F8"/>
<path d="M270.196 203.488C269.781 203.488 269.406 203.411 269.071 203.258C268.736 203.102 268.47 202.876 268.274 202.58C268.081 202.285 267.984 201.923 267.984 201.494C267.984 201.124 268.055 200.82 268.197 200.582C268.339 200.343 268.531 200.154 268.772 200.015C269.014 199.876 269.284 199.771 269.582 199.7C269.88 199.629 270.184 199.575 270.494 199.538C270.886 199.492 271.204 199.455 271.449 199.427C271.693 199.396 271.87 199.346 271.981 199.278C272.092 199.21 272.147 199.099 272.147 198.945V198.916C272.147 198.543 272.042 198.255 271.832 198.05C271.625 197.846 271.315 197.744 270.903 197.744C270.474 197.744 270.136 197.839 269.889 198.029C269.645 198.217 269.476 198.425 269.382 198.656L268.184 198.383C268.326 197.985 268.534 197.664 268.807 197.42C269.082 197.173 269.399 196.994 269.757 196.883C270.115 196.769 270.491 196.712 270.886 196.712C271.147 196.712 271.424 196.744 271.717 196.806C272.013 196.866 272.288 196.977 272.544 197.139C272.802 197.3 273.014 197.532 273.179 197.833C273.343 198.131 273.426 198.519 273.426 198.996V203.343H272.182V202.448H272.13C272.048 202.613 271.924 202.775 271.76 202.934C271.595 203.093 271.383 203.225 271.125 203.33C270.866 203.435 270.557 203.488 270.196 203.488ZM270.473 202.465C270.825 202.465 271.126 202.396 271.376 202.256C271.629 202.117 271.821 201.935 271.951 201.711C272.085 201.484 272.152 201.241 272.152 200.982V200.139C272.106 200.184 272.018 200.227 271.888 200.266C271.76 200.303 271.613 200.336 271.449 200.364C271.284 200.39 271.123 200.414 270.967 200.437C270.811 200.457 270.68 200.474 270.575 200.488C270.328 200.519 270.102 200.572 269.897 200.646C269.696 200.72 269.534 200.826 269.412 200.965C269.292 201.102 269.233 201.283 269.233 201.511C269.233 201.826 269.349 202.065 269.582 202.227C269.815 202.386 270.112 202.465 270.473 202.465Z" fill="white"/>
<path d="M265.228 203.343V196.798H266.502V203.343H265.228ZM265.871 195.788C265.65 195.788 265.459 195.714 265.3 195.566C265.144 195.416 265.066 195.237 265.066 195.029C265.066 194.819 265.144 194.64 265.3 194.492C265.459 194.342 265.65 194.266 265.871 194.266C266.093 194.266 266.282 194.342 266.438 194.492C266.597 194.64 266.677 194.819 266.677 195.029C266.677 195.237 266.597 195.416 266.438 195.566C266.282 195.714 266.093 195.788 265.871 195.788Z" fill="white"/>
<path d="M263.624 198.396L262.469 198.6C262.421 198.452 262.344 198.312 262.239 198.178C262.137 198.045 261.997 197.935 261.821 197.85C261.645 197.765 261.425 197.722 261.161 197.722C260.8 197.722 260.499 197.803 260.257 197.965C260.016 198.124 259.895 198.33 259.895 198.583C259.895 198.802 259.976 198.978 260.138 199.112C260.3 199.245 260.561 199.354 260.922 199.44L261.962 199.678C262.564 199.818 263.013 200.032 263.309 200.322C263.604 200.612 263.752 200.988 263.752 201.451C263.752 201.843 263.638 202.193 263.411 202.499C263.186 202.803 262.872 203.042 262.469 203.215C262.068 203.389 261.604 203.475 261.076 203.475C260.343 203.475 259.745 203.319 259.282 203.006C258.818 202.691 258.534 202.244 258.429 201.664L259.661 201.477C259.738 201.798 259.895 202.041 260.134 202.205C260.372 202.367 260.684 202.448 261.067 202.448C261.485 202.448 261.818 202.362 262.068 202.188C262.318 202.012 262.443 201.798 262.443 201.545C262.443 201.34 262.367 201.168 262.213 201.029C262.063 200.89 261.831 200.785 261.519 200.714L260.411 200.471C259.8 200.332 259.348 200.11 259.056 199.806C258.766 199.502 258.621 199.117 258.621 198.651C258.621 198.265 258.729 197.927 258.945 197.637C259.161 197.347 259.459 197.121 259.84 196.96C260.22 196.795 260.657 196.712 261.148 196.712C261.855 196.712 262.412 196.866 262.818 197.173C263.225 197.477 263.493 197.884 263.624 198.396Z" fill="white"/>
<path d="M253.717 203.488C253.302 203.488 252.927 203.411 252.592 203.258C252.257 203.102 251.991 202.876 251.795 202.58C251.602 202.285 251.505 201.923 251.505 201.494C251.505 201.124 251.576 200.82 251.718 200.582C251.86 200.343 252.052 200.154 252.294 200.015C252.535 199.876 252.805 199.771 253.103 199.7C253.402 199.629 253.706 199.575 254.015 199.538C254.407 199.492 254.725 199.455 254.97 199.427C255.214 199.396 255.392 199.346 255.502 199.278C255.613 199.21 255.669 199.099 255.669 198.945V198.916C255.669 198.543 255.563 198.255 255.353 198.05C255.146 197.846 254.836 197.744 254.424 197.744C253.995 197.744 253.657 197.839 253.41 198.029C253.166 198.217 252.997 198.425 252.903 198.656L251.706 198.383C251.848 197.985 252.055 197.664 252.328 197.42C252.603 197.173 252.92 196.994 253.278 196.883C253.636 196.769 254.012 196.712 254.407 196.712C254.669 196.712 254.946 196.744 255.238 196.806C255.534 196.866 255.809 196.977 256.065 197.139C256.323 197.3 256.535 197.532 256.7 197.833C256.865 198.131 256.947 198.519 256.947 198.996V203.343H255.703V202.448H255.652C255.569 202.613 255.446 202.775 255.281 202.934C255.116 203.093 254.904 203.225 254.646 203.33C254.387 203.435 254.078 203.488 253.717 203.488ZM253.994 202.465C254.346 202.465 254.647 202.396 254.897 202.256C255.15 202.117 255.342 201.935 255.473 201.711C255.606 201.484 255.673 201.241 255.673 200.982V200.139C255.627 200.184 255.539 200.227 255.409 200.266C255.281 200.303 255.134 200.336 254.97 200.364C254.805 200.39 254.644 200.414 254.488 200.437C254.332 200.457 254.201 200.474 254.096 200.488C253.849 200.519 253.623 200.572 253.419 200.646C253.217 200.72 253.055 200.826 252.933 200.965C252.813 201.102 252.754 201.283 252.754 201.511C252.754 201.826 252.87 202.065 253.103 202.227C253.336 202.386 253.633 202.465 253.994 202.465Z" fill="white"/>
<path d="M250.328 196.798V197.82H246.752V196.798H250.328ZM247.711 195.229H248.985V201.421C248.985 201.668 249.022 201.854 249.096 201.979C249.17 202.102 249.265 202.185 249.382 202.231C249.501 202.273 249.63 202.295 249.769 202.295C249.872 202.295 249.961 202.288 250.038 202.273C250.115 202.259 250.174 202.248 250.217 202.239L250.447 203.292C250.373 203.32 250.268 203.349 250.132 203.377C249.995 203.408 249.825 203.425 249.62 203.428C249.285 203.434 248.972 203.374 248.683 203.249C248.393 203.124 248.159 202.931 247.98 202.67C247.801 202.408 247.711 202.08 247.711 201.685V195.229Z" fill="white"/>
<path d="M245.668 198.396L244.514 198.6C244.465 198.452 244.389 198.312 244.283 198.178C244.181 198.045 244.042 197.935 243.866 197.85C243.69 197.765 243.47 197.722 243.205 197.722C242.845 197.722 242.543 197.803 242.302 197.965C242.06 198.124 241.94 198.33 241.94 198.583C241.94 198.802 242.021 198.978 242.183 199.112C242.345 199.245 242.606 199.354 242.967 199.44L244.006 199.678C244.609 199.818 245.058 200.032 245.353 200.322C245.649 200.612 245.796 200.988 245.796 201.451C245.796 201.843 245.683 202.193 245.455 202.499C245.231 202.803 244.917 203.042 244.514 203.215C244.113 203.389 243.649 203.475 243.12 203.475C242.387 203.475 241.789 203.319 241.326 203.006C240.863 202.691 240.579 202.244 240.474 201.664L241.705 201.477C241.782 201.798 241.94 202.041 242.178 202.205C242.417 202.367 242.728 202.448 243.112 202.448C243.529 202.448 243.863 202.362 244.113 202.188C244.363 202.012 244.488 201.798 244.488 201.545C244.488 201.34 244.411 201.168 244.258 201.029C244.107 200.89 243.876 200.785 243.563 200.714L242.455 200.471C241.845 200.332 241.393 200.11 241.1 199.806C240.81 199.502 240.666 199.117 240.666 198.651C240.666 198.265 240.774 197.927 240.989 197.637C241.205 197.347 241.504 197.121 241.884 196.96C242.265 196.795 242.701 196.712 243.193 196.712C243.9 196.712 244.457 196.866 244.863 197.173C245.269 197.477 245.538 197.884 245.668 198.396Z" fill="white"/>
<path d="M235.761 203.488C235.347 203.488 234.972 203.411 234.636 203.258C234.301 203.102 234.036 202.876 233.84 202.58C233.646 202.285 233.55 201.923 233.55 201.494C233.55 201.124 233.621 200.82 233.763 200.582C233.905 200.343 234.097 200.154 234.338 200.015C234.58 199.876 234.849 199.771 235.148 199.7C235.446 199.629 235.75 199.575 236.06 199.538C236.452 199.492 236.77 199.455 237.014 199.427C237.259 199.396 237.436 199.346 237.547 199.278C237.658 199.21 237.713 199.099 237.713 198.945V198.916C237.713 198.543 237.608 198.255 237.398 198.05C237.19 197.846 236.881 197.744 236.469 197.744C236.04 197.744 235.702 197.839 235.455 198.029C235.21 198.217 235.041 198.425 234.947 198.656L233.75 198.383C233.892 197.985 234.099 197.664 234.372 197.42C234.648 197.173 234.965 196.994 235.322 196.883C235.68 196.769 236.057 196.712 236.452 196.712C236.713 196.712 236.99 196.744 237.283 196.806C237.578 196.866 237.854 196.977 238.109 197.139C238.368 197.3 238.58 197.532 238.744 197.833C238.909 198.131 238.992 198.519 238.992 198.996V203.343H237.747V202.448H237.696C237.614 202.613 237.49 202.775 237.325 202.934C237.161 203.093 236.949 203.225 236.69 203.33C236.432 203.435 236.122 203.488 235.761 203.488ZM236.038 202.465C236.391 202.465 236.692 202.396 236.942 202.256C237.195 202.117 237.386 201.935 237.517 201.711C237.651 201.484 237.717 201.241 237.717 200.982V200.139C237.672 200.184 237.584 200.227 237.453 200.266C237.325 200.303 237.179 200.336 237.014 200.364C236.849 200.39 236.689 200.414 236.533 200.437C236.376 200.457 236.246 200.474 236.141 200.488C235.893 200.519 235.668 200.572 235.463 200.646C235.261 200.72 235.099 200.826 234.977 200.965C234.858 201.102 234.798 201.283 234.798 201.511C234.798 201.826 234.915 202.065 235.148 202.227C235.381 202.386 235.678 202.465 236.038 202.465Z" fill="white"/>
<path d="M227.884 199.457V203.343H226.61V196.798H227.833V197.863H227.914C228.064 197.516 228.3 197.238 228.621 197.028C228.945 196.818 229.353 196.712 229.844 196.712C230.29 196.712 230.681 196.806 231.016 196.994C231.351 197.178 231.611 197.454 231.796 197.82C231.98 198.187 232.073 198.64 232.073 199.18V203.343H230.799V199.333C230.799 198.859 230.675 198.488 230.428 198.221C230.181 197.951 229.841 197.816 229.409 197.816C229.114 197.816 228.851 197.88 228.621 198.008C228.394 198.136 228.213 198.323 228.08 198.57C227.949 198.815 227.884 199.11 227.884 199.457Z" fill="white"/>
<path d="M218.972 203.343H217.574L220.715 194.616H222.236L225.377 203.343H223.979L221.512 196.201H221.443L218.972 203.343ZM219.206 199.925H223.74V201.033H219.206V199.925Z" fill="white"/>
<defs>
<filter id="filter0_d_371_124" x="194" y="166" width="22.4143" height="26.0658" filterUnits="userSpaceOnUse" color-interpolation-filters="sRGB">
<feFlood flood-opacity="0" result="BackgroundImageFix"/>
<feColorMatrix in="SourceAlpha" type="matrix" values="0 0 0 0 0 0 0 0 0 0 0 0 0 0 0 0 0 0 127 0" result="hardAlpha"/>
<feOffset dy="1"/>
<feGaussianBlur stdDeviation="1"/>
<feComposite in2="hardAlpha" operator="out"/>
<feColorMatrix type="matrix" values="0 0 0 0 0 0 0 0 0 0 0 0 0 0 0 0 0 0 0.25 0"/>
<feBlend mode="normal" in2="BackgroundImageFix" result="effect1_dropShadow_371_124"/>
<feBlend mode="normal" in="SourceGraphic" in2="effect1_dropShadow_371_124" result="shape"/>
</filter>
</defs>
</svg>
