<svg width="280" height="210" viewBox="0 0 280 210" fill="none" xmlns="http://www.w3.org/2000/svg">
<path fill-rule="evenodd" clip-rule="evenodd" d="M63.538 158.259C63.4638 158.386 63.3933 158.51 63.3258 158.634C62.8397 159.532 62.4429 160.404 62.0268 161.319C61.7607 161.905 61.4866 162.507 61.1762 163.145C60.9202 163.671 60.704 164.142 60.5375 164.627C60.463 164.844 60.3346 165.027 60.1725 165.167C60.1792 165.182 60.1855 165.195 60.1915 165.207C60.7014 166.251 61.3621 167.229 62.1247 168.197C62.5705 168.763 62.95 169.46 63.2569 170.023C63.3705 170.231 63.4741 170.422 63.5675 170.58L63.5702 170.585C63.6409 170.705 63.7047 170.813 63.7633 170.911C64.2814 169.858 64.9279 168.811 65.5344 167.828C65.8657 167.291 66.1851 166.773 66.4651 166.285C66.8239 165.659 67.2328 165.039 67.6151 164.459C67.7149 164.308 67.8128 164.159 67.9076 164.014C67.9023 164.003 67.8971 163.992 67.8919 163.981C67.8908 163.98 67.8767 163.956 67.8306 163.892C67.8173 163.874 67.8036 163.855 67.7871 163.832L67.7845 163.829C67.7677 163.806 67.7479 163.778 67.7277 163.75C67.6877 163.695 67.6384 163.624 67.5888 163.545C67.4843 163.379 67.3841 163.201 67.3034 163.057C67.2829 163.02 67.2637 162.986 67.246 162.955C67.1476 162.781 67.0713 162.655 66.9936 162.55C66.4305 161.786 65.8527 161.033 65.2472 160.322C64.6655 159.639 64.0976 158.947 63.538 158.259ZM68.2957 163.444C68.2954 163.445 68.2951 163.445 68.2948 163.446C68.2974 163.441 68.298 163.44 68.2957 163.444ZM58.3366 163.371C58.5198 162.905 58.726 162.467 58.9284 162.051C59.1767 161.541 59.4287 160.988 59.6883 160.42C60.1389 159.432 60.6122 158.395 61.1278 157.443C61.2824 157.158 61.449 156.879 61.6004 156.625C61.6181 156.595 61.6356 156.565 61.6529 156.537C61.8142 156.266 61.9578 156.021 62.0843 155.779C62.0851 155.777 62.0859 155.774 62.0869 155.772C62.0971 155.743 62.1205 155.678 62.1423 155.624C62.1562 155.589 62.1793 155.534 62.2105 155.473C62.2329 155.429 62.3006 155.298 62.4222 155.166C62.4911 155.09 62.9456 154.609 63.6636 154.787C64.2812 154.94 64.4986 155.455 64.5293 155.528C64.5293 155.528 64.5293 155.528 64.5293 155.528C64.5317 155.532 64.5484 155.56 64.6017 155.625C64.6371 155.668 64.6758 155.712 64.7324 155.776L64.733 155.777C64.7848 155.836 64.8533 155.914 64.9213 155.997L65.0152 156.113C65.7274 156.99 66.4292 157.854 67.1506 158.701C67.8093 159.475 68.4258 160.279 69.0062 161.067C69.1767 161.298 69.3132 161.532 69.4209 161.722C69.4504 161.774 69.4772 161.822 69.5023 161.866C69.5777 162.001 69.6371 162.106 69.705 162.214C69.7267 162.249 69.7462 162.276 69.7854 162.329C69.8044 162.355 69.8281 162.388 69.8588 162.43C69.931 162.53 70.0535 162.703 70.1516 162.912L70.1516 162.912C70.1516 162.912 70.1613 162.932 70.2006 162.985C70.2204 163.011 70.244 163.042 70.2756 163.081C70.2839 163.091 70.296 163.106 70.3098 163.123C70.334 163.153 70.363 163.189 70.3842 163.215L69.4073 163.995L69.387 164.011M69.4073 163.995L70.3842 163.215C70.6077 163.495 70.6492 163.787 70.6569 163.934C70.665 164.088 70.6429 164.21 70.6291 164.273C70.6014 164.4 70.5597 164.496 70.5433 164.533C70.5049 164.62 70.4622 164.692 70.4403 164.729C70.3899 164.813 70.33 164.902 70.2841 164.968C70.2348 165.04 70.1855 165.109 70.1495 165.159C70.1202 165.199 70.1084 165.216 70.106 165.219C69.9539 165.454 69.8053 165.68 69.6605 165.899C69.2939 166.455 68.9512 166.974 68.6341 167.528C68.264 168.173 67.9007 168.76 67.5509 169.325C66.9572 170.283 66.4027 171.178 65.9205 172.193C65.8944 172.248 65.8657 172.315 65.8213 172.421L65.8178 172.43C65.7781 172.524 65.7267 172.647 65.6691 172.77C65.5605 173.003 65.3698 173.376 65.0471 173.68C65.0442 173.682 65.0408 173.686 65.0367 173.689C64.9422 173.78 64.5297 174.175 63.8953 174.133C63.6141 174.114 63.4011 174.014 63.2987 173.962C63.2006 173.912 63.1054 173.852 63.0513 173.818L63.044 173.813C62.2526 173.314 61.7645 172.461 61.4946 171.99C61.4648 171.938 61.4377 171.89 61.4131 171.849C61.2263 171.531 61.0756 171.253 60.9384 171C60.6818 170.526 60.4722 170.139 60.1611 169.745C59.3288 168.688 58.5574 167.557 57.9454 166.305C57.8837 166.179 57.829 166.048 57.7879 165.95C57.7845 165.941 57.781 165.933 57.7777 165.925C57.737 165.827 57.7058 165.752 57.6726 165.68C57.6184 165.562 57.5878 165.519 57.5848 165.513C57.0954 165.039 57.0756 164.258 57.5438 163.76C57.7606 163.529 58.0443 163.399 58.3366 163.371M70.1203 165.197L69.0704 164.519L70.1203 165.197C62.0735 155.808 62.0741 155.806 62.0752 155.804C62.074 155.807 62.0734 155.808 62.0734 155.808M71.1293 168.901C71.689 169.588 72.2569 170.28 72.8386 170.963C73.4441 171.675 74.0219 172.427 74.585 173.191C74.6627 173.297 74.739 173.423 74.8373 173.596C74.8551 173.628 74.8743 173.662 74.8947 173.698C74.9755 173.842 75.0756 174.021 75.1801 174.187C75.2297 174.266 75.2791 174.336 75.3191 174.392C75.3392 174.42 75.359 174.447 75.3758 174.47L75.3786 174.474C75.3951 174.496 75.4087 174.515 75.422 174.534C75.4681 174.598 75.4822 174.621 75.4833 174.623C75.4884 174.634 75.4937 174.645 75.499 174.655C75.4042 174.801 75.3062 174.949 75.2065 175.1C74.8241 175.68 74.4153 176.3 74.0565 176.926C73.7764 177.415 73.457 177.932 73.1257 178.469C72.5192 179.452 71.8728 180.5 71.3547 181.553C71.2961 181.455 71.2323 181.347 71.1616 181.226L71.1589 181.222C71.0655 181.063 70.9618 180.873 70.8483 180.665C70.5413 180.101 70.1619 179.405 69.7161 178.839C68.9534 177.871 68.2928 176.892 67.7829 175.849C67.7768 175.836 67.7705 175.823 67.7639 175.809C67.926 175.669 68.0544 175.485 68.1289 175.268C68.2954 174.784 68.5116 174.312 68.7676 173.787C69.078 173.149 69.352 172.546 69.6182 171.961C70.0342 171.046 70.431 170.173 70.9172 169.276C70.9847 169.151 71.0552 169.028 71.1293 168.901ZM65.9279 174.013C66.1112 173.546 66.3173 173.108 66.5198 172.692C66.768 172.182 67.0201 171.63 67.2796 171.061C67.7302 170.074 68.2035 169.036 68.7192 168.085C68.8738 167.8 69.0404 167.52 69.1918 167.266C69.2095 167.236 69.227 167.207 69.2443 167.178C69.4055 166.907 69.5492 166.662 69.6757 166.42C69.6764 166.418 69.6773 166.416 69.6783 166.413C69.6885 166.385 69.7119 166.319 69.7336 166.265C69.7476 166.231 69.7706 166.175 69.8018 166.114C69.8242 166.071 69.892 165.94 70.0136 165.807C70.0825 165.732 70.537 165.251 71.2549 165.428C71.8726 165.581 72.0899 166.096 72.1206 166.169C72.1207 166.169 72.1207 166.169 72.1207 166.169C72.1231 166.173 72.1397 166.202 72.1931 166.267C72.2284 166.309 72.2671 166.353 72.3236 166.418L72.3244 166.418C72.3762 166.477 72.4447 166.555 72.5127 166.639L72.6064 166.754C73.3186 167.631 74.0205 168.495 74.742 169.343C75.4007 170.116 76.0171 170.921 76.5975 171.708C76.7681 171.94 76.9046 172.174 77.0122 172.363C77.0418 172.416 77.0687 172.463 77.0937 172.508C77.1691 172.642 77.2284 172.748 77.2964 172.856C77.318 172.89 77.3376 172.917 77.3768 172.971C77.3958 172.997 77.4194 173.029 77.4502 173.072C77.5224 173.172 77.6448 173.345 77.7429 173.553C77.7425 173.553 77.7519 173.572 77.792 173.626C77.8118 173.653 77.8354 173.683 77.8669 173.722C77.8752 173.733 77.8874 173.748 77.9011 173.765C77.9253 173.794 77.9543 173.83 77.9756 173.857L77.0815 174.571L77.9756 173.857C78.199 174.137 78.2405 174.429 78.2482 174.575C78.2564 174.729 78.2343 174.851 78.2205 174.914C78.1927 175.041 78.151 175.138 78.1346 175.175C78.0962 175.261 78.0535 175.334 78.0317 175.37C77.9813 175.455 77.9213 175.543 77.8754 175.61C77.8261 175.681 77.7768 175.75 77.7408 175.8C77.7116 175.841 77.6998 175.858 77.6974 175.861C77.5452 176.096 77.3967 176.321 77.2518 176.541C76.8853 177.096 76.5426 177.616 76.2255 178.169C75.8554 178.815 75.4921 179.402 75.1423 179.966C74.5486 180.924 73.994 181.82 73.5119 182.834C73.4858 182.889 73.4571 182.957 73.4127 183.063L73.4093 183.071C73.3695 183.166 73.3181 183.288 73.2605 183.412C73.1518 183.645 72.9612 184.018 72.6384 184.321C72.6356 184.324 72.6321 184.327 72.6281 184.331C72.5336 184.421 72.1211 184.816 71.4867 184.774C71.2055 184.755 70.9925 184.656 70.8901 184.604C70.792 184.554 70.6968 184.494 70.6427 184.459L70.6354 184.455C69.844 183.956 69.3559 183.103 69.086 182.631C69.0562 182.579 69.029 182.532 69.0044 182.49C68.8176 182.173 68.667 181.895 68.5297 181.641C68.2732 181.168 68.0636 180.781 67.7524 180.386C66.9202 179.33 66.1487 178.199 65.5368 176.947C65.475 176.82 65.4204 176.69 65.3793 176.591L65.3691 176.566C65.3284 176.469 65.2972 176.394 65.264 176.322C65.2098 176.204 65.1792 176.16 65.1761 176.155C64.6867 175.681 64.6669 174.9 65.1352 174.401C65.352 174.171 65.6357 174.04 65.9279 174.013ZM69.6648 166.45C69.6648 166.45 69.6654 166.448 69.6666 166.445C69.6654 166.448 69.6648 166.45 69.6648 166.45ZM75.887 174.086C75.8867 174.086 75.8864 174.087 75.8861 174.087C75.8888 174.083 75.8894 174.082 75.887 174.086ZM56.0832 170.564C56.009 170.691 55.9385 170.814 55.871 170.939C55.3849 171.836 54.9881 172.709 54.572 173.624C54.3059 174.209 54.0318 174.812 53.7214 175.45C53.4654 175.975 53.2492 176.447 53.0827 176.931C53.0082 177.148 52.8798 177.332 52.7177 177.472C52.7244 177.486 52.7306 177.5 52.7367 177.512C53.2466 178.555 53.9073 179.534 54.6699 180.502C55.1157 181.068 55.4952 181.764 55.8021 182.328C55.9157 182.536 56.0193 182.726 56.1127 182.885L56.1154 182.89C56.1861 183.01 56.2499 183.118 56.3085 183.216C56.8266 182.163 57.4731 181.115 58.0796 180.132C58.4109 179.595 58.7303 179.078 59.0103 178.589C59.3691 177.963 59.778 177.343 60.1603 176.764C60.2601 176.612 60.358 176.464 60.4528 176.318C60.4475 176.308 60.4423 176.297 60.4371 176.286C60.436 176.285 60.422 176.261 60.3758 176.197C60.3625 176.178 60.3489 176.159 60.3324 176.137L60.3297 176.133C60.3128 176.11 60.293 176.083 60.2729 176.055C60.2329 175.999 60.1836 175.929 60.134 175.85C60.0295 175.684 59.9293 175.505 59.8486 175.361C59.8281 175.325 59.8089 175.291 59.7912 175.259C59.6928 175.086 59.6165 174.96 59.5388 174.854C58.9757 174.09 58.3979 173.338 57.7924 172.627C57.2107 171.943 56.6428 171.251 56.0832 170.564ZM60.8409 175.749C60.8406 175.749 60.8403 175.75 60.8399 175.75C60.8426 175.746 60.8432 175.745 60.8409 175.749ZM50.8818 175.676C51.065 175.209 51.2712 174.771 51.4736 174.355C51.7219 173.845 51.9739 173.293 52.2334 172.724C52.6841 171.737 53.1574 170.699 53.673 169.748C53.8276 169.463 53.9942 169.183 54.1456 168.929C54.1633 168.899 54.1808 168.87 54.1981 168.841C54.3593 168.57 54.503 168.325 54.6295 168.083C54.6303 168.081 54.6311 168.079 54.6321 168.076C54.6423 168.048 54.6657 167.982 54.6875 167.928C54.7014 167.894 54.7245 167.839 54.7557 167.778C54.7781 167.734 54.8458 167.603 54.9674 167.47C55.0363 167.395 55.4908 166.914 56.2088 167.091C56.8264 167.244 57.0438 167.759 57.0745 167.832C57.0745 167.832 57.0745 167.832 57.0745 167.832C57.0769 167.836 57.0936 167.865 57.1469 167.93C57.1823 167.972 57.221 168.016 57.2776 168.081L57.2782 168.082C57.33 168.14 57.3985 168.218 57.4665 168.302C57.4978 168.341 57.529 168.379 57.5603 168.417C58.2725 169.294 58.9743 170.158 59.6958 171.006C60.3545 171.779 60.9709 172.584 61.5514 173.371C61.7219 173.603 61.8584 173.837 61.9661 174.026C61.9956 174.079 62.0225 174.126 62.0475 174.171C62.1229 174.305 62.1823 174.411 62.2502 174.519C62.2719 174.553 62.2914 174.58 62.3306 174.634C62.3496 174.66 62.3733 174.692 62.404 174.735C62.4762 174.835 62.5986 175.008 62.6967 175.216C62.6965 175.216 62.706 175.236 62.7458 175.289C62.7656 175.316 62.7892 175.346 62.8208 175.385C62.8291 175.396 62.8413 175.411 62.855 175.428C62.8792 175.458 62.9082 175.493 62.9294 175.52L62.0353 176.234L62.9294 175.52C63.1529 175.8 63.1944 176.092 63.2021 176.238C63.2102 176.392 63.1881 176.514 63.1743 176.577C63.1466 176.704 63.1049 176.801 63.0885 176.838C63.0501 176.924 63.0073 176.997 62.9855 177.033C62.9351 177.118 62.8752 177.206 62.8293 177.273C62.78 177.344 62.7306 177.413 62.6947 177.463C62.6655 177.504 62.6536 177.521 62.6512 177.524C62.4991 177.759 62.3505 177.984 62.2057 178.204C61.8392 178.759 61.4964 179.279 61.1793 179.832C60.8092 180.478 60.4459 181.065 60.0961 181.629C59.5024 182.587 58.9478 183.483 58.4657 184.497C58.4396 184.552 58.4109 184.62 58.3665 184.726L58.363 184.734C58.3233 184.829 58.2719 184.951 58.2143 185.075C58.1057 185.308 57.915 185.681 57.5923 185.984C57.5894 185.987 57.586 185.99 57.5819 185.994C57.4874 186.084 57.0749 186.479 56.4405 186.437C56.1593 186.418 55.9463 186.319 55.8439 186.267C55.7459 186.217 55.6506 186.157 55.5965 186.122L55.5892 186.118L56.2561 185.061L55.5892 186.118C54.7978 185.619 54.3097 184.766 54.0398 184.294C54.01 184.242 53.9829 184.195 53.9583 184.153C53.7715 183.836 53.6208 183.558 53.4835 183.304C53.227 182.831 53.0174 182.444 52.7063 182.049C51.874 180.993 51.1026 179.862 50.4906 178.61C50.4289 178.483 50.3742 178.353 50.3331 178.254L50.3229 178.23C50.2822 178.132 50.251 178.057 50.2178 177.985C50.1636 177.867 50.133 177.823 50.13 177.818C49.6405 177.344 49.6208 176.563 50.089 176.064C50.3058 175.834 50.5895 175.704 50.8818 175.676ZM54.6186 168.113C54.6187 168.113 54.6193 168.111 54.6204 168.108C54.6192 168.111 54.6186 168.113 54.6186 168.113ZM64.0488 181.373C63.9746 181.501 63.9041 181.624 63.8366 181.749C63.3505 182.646 62.9537 183.519 62.5377 184.434C62.2715 185.019 61.9974 185.622 61.687 186.259C61.431 186.785 61.2148 187.256 61.0484 187.741C60.9738 187.958 60.8455 188.142 60.6833 188.281C60.69 188.296 60.6963 188.309 60.7023 188.322C61.2122 189.365 61.8729 190.344 62.6356 191.312C63.0814 191.877 63.4608 192.574 63.7677 193.137C63.8813 193.346 63.9849 193.536 64.0783 193.695L64.081 193.699C64.1517 193.819 64.2155 193.928 64.2741 194.026C64.7923 192.973 65.4387 191.925 66.0452 190.942C66.3765 190.405 66.6959 189.888 66.9759 189.399C67.3347 188.773 67.7436 188.153 68.1259 187.573C68.2257 187.422 68.3237 187.273 68.4185 187.128C68.4131 187.117 68.4079 187.107 68.4027 187.096C68.4016 187.094 68.3875 187.07 68.3414 187.006C68.3325 186.994 68.3234 186.981 68.3134 186.968C68.3077 186.96 68.3017 186.952 68.2953 186.943C68.2785 186.92 68.2587 186.893 68.2385 186.865C68.1985 186.809 68.1492 186.738 68.0996 186.66C67.9951 186.494 67.895 186.315 67.8142 186.171C67.7937 186.135 67.7745 186.1 67.7568 186.069C67.6584 185.895 67.5821 185.77 67.5044 185.664C66.9413 184.9 66.3636 184.147 65.758 183.436C65.1763 182.753 64.6084 182.061 64.0488 181.373ZM68.8065 186.558C68.8062 186.559 68.8059 186.559 68.8056 186.56C68.8083 186.555 68.8088 186.555 68.8065 186.558ZM58.8474 186.486C59.0306 186.019 59.2368 185.581 59.4392 185.165C59.6875 184.655 59.9395 184.103 60.1991 183.534C60.6497 182.546 61.123 181.509 61.6386 180.558C61.7932 180.272 61.9598 179.993 62.1112 179.739C62.1289 179.709 62.1465 179.68 62.1637 179.651C62.325 179.38 62.4686 179.135 62.5952 178.893C62.5959 178.891 62.5967 178.889 62.5977 178.886C62.608 178.857 62.6313 178.792 62.6531 178.738C62.6671 178.703 62.6901 178.648 62.7213 178.587C62.7437 178.543 62.8114 178.413 62.933 178.28C63.0019 178.205 63.4564 177.724 64.1744 177.901C64.792 178.054 65.0094 178.569 65.0401 178.642C65.0401 178.642 65.0401 178.642 65.0401 178.642C65.0425 178.646 65.0592 178.675 65.1125 178.739C65.1479 178.782 65.1866 178.826 65.2431 178.89L65.2438 178.891C65.2956 178.95 65.3641 179.028 65.4321 179.112L65.526 179.227C66.2381 180.104 66.94 180.968 67.6614 181.815C68.3202 182.589 68.9366 183.393 69.517 184.181C69.6875 184.412 69.824 184.646 69.9317 184.836C69.9612 184.888 69.9881 184.936 70.0131 184.981C70.0885 185.115 70.1479 185.221 70.2158 185.329C70.2375 185.363 70.257 185.39 70.2962 185.444C70.3152 185.47 70.3389 185.502 70.3697 185.545C70.4418 185.645 70.5643 185.818 70.6624 186.026C70.662 186.025 70.6713 186.045 70.7114 186.099C70.7312 186.126 70.7548 186.156 70.7864 186.195C70.8092 186.224 70.8617 186.288 70.895 186.33L69.9181 187.11L69.8352 187.176M69.9181 187.11L70.895 186.33C71.1185 186.61 71.16 186.902 71.1677 187.048C71.1758 187.202 71.1537 187.324 71.14 187.387C71.1122 187.514 71.0705 187.611 71.0541 187.647C71.0157 187.734 70.973 187.807 70.9512 187.843C70.9007 187.927 70.8408 188.016 70.7949 188.083C70.7456 188.154 70.6963 188.223 70.6603 188.273C70.6311 188.314 70.6192 188.33 70.6168 188.333C70.4647 188.569 70.3161 188.794 70.1713 189.013C69.8048 189.569 69.4621 190.089 69.145 190.642C68.7748 191.288 68.4115 191.874 68.0617 192.439C67.468 193.397 66.9135 194.292 66.4313 195.307C66.4052 195.362 66.3766 195.43 66.3321 195.536L66.3286 195.544C66.2889 195.639 66.2375 195.761 66.1799 195.885C66.0713 196.117 65.8807 196.491 65.5579 196.794C65.555 196.797 65.5516 196.8 65.5475 196.804C65.453 196.894 65.0405 197.289 64.4061 197.247C64.125 197.228 63.9119 197.129 63.8095 197.077C63.7114 197.026 63.6161 196.966 63.5621 196.932L63.5548 196.928C62.7635 196.428 62.2753 195.576 62.0054 195.104C61.9756 195.052 61.9485 195.005 61.9239 194.963C61.7371 194.646 61.5864 194.367 61.4492 194.114C61.1926 193.641 60.983 193.254 60.6719 192.859C59.8396 191.803 59.0682 190.671 58.4562 189.419C58.3945 189.293 58.3398 189.162 58.2987 189.064L58.2886 189.039C58.2479 188.942 58.2166 188.867 58.1834 188.795C58.1292 188.676 58.0986 188.633 58.0956 188.627C57.6062 188.153 57.5864 187.372 58.0546 186.874C58.2714 186.643 58.5551 186.513 58.8474 186.486M62.5843 178.922C62.5844 178.922 62.585 178.92 62.586 178.918C62.5847 178.921 62.5841 178.923 62.5843 178.922Z" fill="#9747FF"/>
<path fill-rule="evenodd" clip-rule="evenodd" d="M207.538 6.25919C207.464 6.38621 207.393 6.50988 207.326 6.63439C206.84 7.53156 206.443 8.40424 206.027 9.31924C205.761 9.90465 205.487 10.5074 205.176 11.145C204.92 11.6708 204.704 12.142 204.538 12.6268C204.463 12.8439 204.335 13.0272 204.173 13.167C204.179 13.1816 204.185 13.1949 204.192 13.2073C204.701 14.2506 205.362 15.2294 206.125 16.1974C206.571 16.7631 206.95 17.4596 207.257 18.023C207.37 18.2314 207.474 18.4216 207.567 18.5803L207.57 18.5849C207.641 18.705 207.705 18.8134 207.763 18.9113C208.281 17.8585 208.928 16.8108 209.534 15.8279C209.866 15.2909 210.185 14.7732 210.465 14.2846C210.824 13.6586 211.233 13.0387 211.615 12.4589C211.715 12.3077 211.813 12.1591 211.908 12.0139C211.902 12.0031 211.897 11.9923 211.892 11.9814C211.891 11.9799 211.877 11.956 211.831 11.892C211.817 11.8735 211.804 11.8548 211.787 11.8321L211.784 11.8286C211.768 11.8055 211.748 11.7784 211.728 11.7503C211.688 11.6946 211.638 11.6242 211.589 11.5453C211.484 11.3792 211.384 11.2007 211.303 11.0567C211.283 11.0203 211.264 10.986 211.246 10.9547C211.148 10.7811 211.071 10.6552 210.994 10.5498C210.431 9.78564 209.853 9.03303 209.247 8.32192C208.666 7.63878 208.098 6.94668 207.538 6.25919ZM212.296 11.4441C212.295 11.4446 212.295 11.4451 212.295 11.4456C212.297 11.441 212.298 11.4402 212.296 11.4441ZM202.337 11.3713C202.52 10.9048 202.726 10.4666 202.928 10.0507C203.177 9.54075 203.429 8.98844 203.688 8.41964C204.139 7.4321 204.612 6.39486 205.128 5.44333C205.282 5.15804 205.449 4.87855 205.6 4.6246C205.618 4.59488 205.636 4.56551 205.653 4.53651C205.814 4.26563 205.958 4.02088 206.084 3.7788C206.085 3.77677 206.086 3.77435 206.087 3.77159C206.097 3.74303 206.121 3.6777 206.142 3.62368C206.156 3.58898 206.179 3.53394 206.21 3.47294C206.233 3.42911 206.301 3.29833 206.422 3.16553C206.491 3.09028 206.946 2.60935 207.664 2.78691C208.281 2.93967 208.499 3.45485 208.529 3.52758C208.529 3.52762 208.529 3.52767 208.529 3.52771C208.532 3.53178 208.548 3.56023 208.602 3.62496C208.637 3.6679 208.676 3.71191 208.732 3.77625L208.733 3.77693C208.785 3.83582 208.853 3.91371 208.921 3.99741L209.015 4.11301C209.727 4.98981 210.429 5.85385 211.151 6.70111C211.809 7.47469 212.426 8.27904 213.006 9.0667C213.177 9.29814 213.313 9.53197 213.421 9.72191C213.45 9.774 213.477 9.8218 213.502 9.86643C213.578 10.0007 213.637 10.1063 213.705 10.2143C213.727 10.2488 213.746 10.2756 213.785 10.3292C213.804 10.3553 213.828 10.3877 213.859 10.4304C213.931 10.5305 214.053 10.7032 214.152 10.9118L214.152 10.9118C214.152 10.9118 214.161 10.932 214.201 10.9848C214.22 11.0114 214.244 11.0415 214.276 11.0808C214.284 11.0911 214.296 11.1061 214.31 11.1231C214.334 11.153 214.363 11.1889 214.384 11.2154L213.407 11.9953L213.387 12.0115M213.407 11.9953L214.384 11.2154C214.608 11.4954 214.649 11.7874 214.657 11.9336C214.665 12.0876 214.643 12.2096 214.629 12.2727C214.601 12.3999 214.56 12.4962 214.543 12.5331C214.505 12.6196 214.462 12.6924 214.44 12.7288C214.39 12.813 214.33 12.9017 214.284 12.9683C214.235 13.0396 214.185 13.1087 214.149 13.1588C214.12 13.1994 214.108 13.216 214.106 13.2191C213.954 13.4543 213.805 13.6795 213.66 13.8991C213.294 14.4548 212.951 14.9744 212.634 15.5277C212.264 16.1735 211.901 16.76 211.551 17.3246C210.957 18.2829 210.403 19.1781 209.921 20.1927C209.894 20.2476 209.866 20.3154 209.821 20.4213L209.818 20.4296C209.778 20.5243 209.727 20.6469 209.669 20.7702C209.56 21.003 209.37 21.3763 209.047 21.6796C209.044 21.6823 209.041 21.6856 209.037 21.6894C208.942 21.7799 208.53 22.1747 207.895 22.1326C207.614 22.1139 207.401 22.0145 207.299 21.9622C207.201 21.9121 207.105 21.852 207.051 21.8178L207.044 21.8133C206.253 21.314 205.765 20.4613 205.495 19.9898C205.465 19.9377 205.438 19.8903 205.413 19.8486C205.226 19.5312 205.076 19.2531 204.938 18.9998C204.682 18.5264 204.472 18.1395 204.161 17.7446C203.329 16.6883 202.557 15.5571 201.945 14.3051C201.884 14.1788 201.829 14.048 201.788 13.9495C201.784 13.9412 201.781 13.933 201.778 13.925C201.737 13.8274 201.706 13.7524 201.673 13.6802C201.618 13.5622 201.588 13.5186 201.585 13.5132C201.095 13.039 201.076 12.2582 201.544 11.7598C201.761 11.529 202.044 11.3989 202.337 11.3713M214.12 13.197L213.07 12.5185L214.12 13.197C206.073 3.80796 206.074 3.80637 206.075 3.80352C206.074 3.8067 206.073 3.80812 206.073 3.80804M215.129 16.9007C215.689 17.5882 216.257 18.2803 216.839 18.9635C217.444 19.6746 218.022 20.4272 218.585 21.1913C218.663 21.2968 218.739 21.4227 218.837 21.5963C218.855 21.6275 218.874 21.6618 218.895 21.6982C218.975 21.8422 219.076 22.0207 219.18 22.1869C219.23 22.2657 219.279 22.3362 219.319 22.3919C219.339 22.42 219.359 22.4471 219.376 22.4701L219.379 22.4738C219.395 22.4965 219.409 22.5151 219.422 22.5335C219.468 22.5976 219.482 22.6215 219.483 22.623C219.488 22.6339 219.494 22.6447 219.499 22.6555C219.404 22.8007 219.306 22.9492 219.206 23.1005C218.824 23.6802 218.415 24.3001 218.057 24.9261C217.776 25.4148 217.457 25.9324 217.126 26.4694C216.519 27.4524 215.873 28.5001 215.355 29.5529C215.296 29.455 215.232 29.3466 215.162 29.2265L215.159 29.2218C215.065 29.0632 214.962 28.873 214.848 28.6646C214.541 28.1012 214.162 27.4047 213.716 26.8389C212.953 25.871 212.293 24.8921 211.783 23.8489C211.777 23.8365 211.771 23.8232 211.764 23.8086C211.926 23.6688 212.054 23.4855 212.129 23.2684C212.295 22.7836 212.512 22.3124 212.768 21.7865C213.078 21.149 213.352 20.5462 213.618 19.9608C214.034 19.0458 214.431 18.1731 214.917 17.2759C214.985 17.1514 215.055 17.0278 215.129 16.9007ZM209.928 22.0128C210.111 21.5464 210.317 21.1082 210.52 20.6923C210.768 20.1823 211.02 19.63 211.28 19.0612C211.73 18.0737 212.204 17.0364 212.719 16.0849C212.874 15.7996 213.04 15.5201 213.192 15.2661C213.21 15.2364 213.227 15.2071 213.244 15.1781C213.406 14.9072 213.549 14.6624 213.676 14.4204C213.676 14.4183 213.677 14.4159 213.678 14.4131C213.689 14.3846 213.712 14.3193 213.734 14.2652C213.748 14.2305 213.771 14.1755 213.802 14.1145C213.824 14.0707 213.892 13.9399 214.014 13.8071C214.082 13.7318 214.537 13.2509 215.255 13.4285C215.873 13.5812 216.09 14.0964 216.121 14.1691C216.121 14.1692 216.121 14.1692 216.121 14.1693C216.123 14.1733 216.14 14.2018 216.193 14.2665C216.228 14.3094 216.267 14.3534 216.324 14.4176L216.324 14.4185C216.376 14.4774 216.445 14.5553 216.513 14.639L216.606 14.7543C217.319 15.6312 218.02 16.4953 218.742 17.3427C219.401 18.1162 220.017 18.9206 220.598 19.7083C220.768 19.9397 220.905 20.1735 221.012 20.3635C221.042 20.4156 221.069 20.4634 221.094 20.5081C221.169 20.6423 221.228 20.7479 221.296 20.8559C221.318 20.8903 221.338 20.9171 221.377 20.9708C221.396 20.9969 221.419 21.0293 221.45 21.0719C221.522 21.1721 221.645 21.3448 221.743 21.5534C221.743 21.5526 221.752 21.5725 221.792 21.6264C221.812 21.653 221.835 21.6831 221.867 21.7224C221.875 21.7326 221.887 21.7477 221.901 21.7646C221.925 21.7945 221.954 21.8304 221.976 21.857L221.082 22.5707L221.976 21.857C222.199 22.137 222.241 22.4289 222.248 22.5752C222.256 22.7292 222.234 22.8512 222.221 22.9143C222.193 23.0414 222.151 23.1378 222.135 23.1747C222.096 23.2612 222.054 23.3339 222.032 23.3704C221.981 23.4546 221.921 23.5433 221.875 23.6098C221.826 23.6812 221.777 23.7503 221.741 23.8003C221.712 23.8409 221.7 23.8575 221.697 23.8606C221.545 24.0958 221.397 24.3211 221.252 24.5406C220.885 25.0964 220.543 25.616 220.226 26.1693C219.855 26.815 219.492 27.4015 219.142 27.9661C218.549 28.9245 217.994 29.8196 217.512 30.8343C217.486 30.8892 217.457 30.9569 217.413 31.0629L217.409 31.071C217.37 31.1658 217.318 31.2884 217.26 31.4118C217.152 31.6446 216.961 32.0179 216.638 32.3211C216.636 32.3238 216.632 32.3271 216.628 32.331C216.534 32.4214 216.121 32.8163 215.487 32.7741C215.206 32.7555 214.992 32.656 214.89 32.6038C214.792 32.5537 214.697 32.4935 214.643 32.4594L214.635 32.4548C213.844 31.9556 213.356 31.1029 213.086 30.6313C213.056 30.5793 213.029 30.5319 213.004 30.4901C212.818 30.1728 212.667 29.8947 212.53 29.6414C212.273 29.1679 212.064 28.781 211.752 28.3862C210.92 27.3299 210.149 26.1987 209.537 24.9467C209.475 24.8203 209.42 24.6896 209.379 24.5911L209.369 24.5665C209.328 24.469 209.297 24.394 209.264 24.3218C209.21 24.2037 209.179 24.1602 209.176 24.1547C208.687 23.6806 208.667 22.8997 209.135 22.4013C209.352 22.1706 209.636 22.0405 209.928 22.0128ZM213.665 14.4496C213.665 14.4495 213.665 14.4479 213.667 14.4451C213.665 14.4482 213.665 14.4497 213.665 14.4496ZM219.887 22.0857C219.887 22.0862 219.886 22.0867 219.886 22.0872C219.889 22.0825 219.889 22.0818 219.887 22.0857ZM200.083 18.5638C200.009 18.6908 199.938 18.8145 199.871 18.939C199.385 19.8361 198.988 20.7088 198.572 21.6238C198.306 22.2092 198.032 22.812 197.721 23.4496C197.465 23.9754 197.249 24.4466 197.083 24.9314C197.008 25.1485 196.88 25.3318 196.718 25.4716C196.724 25.4862 196.731 25.4995 196.737 25.5119C197.247 26.5552 197.907 27.534 198.67 28.502C199.116 29.0677 199.495 29.7642 199.802 30.3276C199.916 30.536 200.019 30.7262 200.113 30.8849L200.115 30.8895C200.186 31.0096 200.25 31.118 200.309 31.2159C200.827 30.1631 201.473 29.1154 202.08 28.1324C202.411 27.5955 202.73 27.0778 203.01 26.5892C203.369 25.9631 203.778 25.3432 204.16 24.7635C204.26 24.6122 204.358 24.4637 204.453 24.3185C204.448 24.3077 204.442 24.2969 204.437 24.286C204.436 24.2845 204.422 24.2606 204.376 24.1966C204.363 24.1782 204.349 24.1595 204.332 24.1369L204.33 24.1332C204.313 24.1101 204.293 24.083 204.273 24.0549C204.233 23.9992 204.184 23.9288 204.134 23.8499C204.029 23.6838 203.929 23.5053 203.849 23.3613C203.828 23.3248 203.809 23.2906 203.791 23.2593C203.693 23.0857 203.617 22.9598 203.539 22.8544C202.976 22.0902 202.398 21.3376 201.792 20.6265C201.211 19.9434 200.643 19.2513 200.083 18.5638ZM204.841 23.7487C204.841 23.7492 204.84 23.7497 204.84 23.7503C204.843 23.7456 204.843 23.7448 204.841 23.7487ZM194.882 23.6759C195.065 23.2094 195.271 22.7712 195.474 22.3553C195.722 21.8453 195.974 21.293 196.233 20.7242C196.684 19.7367 197.157 18.6995 197.673 17.7479C197.828 17.4626 197.994 17.1831 198.146 16.9292C198.163 16.8994 198.181 16.8701 198.198 16.8411C198.359 16.5702 198.503 16.3255 198.63 16.0834C198.63 16.0814 198.631 16.079 198.632 16.0762C198.642 16.0476 198.666 15.9823 198.687 15.9283C198.701 15.8936 198.724 15.8385 198.756 15.7775C198.778 15.7337 198.846 15.6029 198.967 15.4701C199.036 15.3949 199.491 14.9139 200.209 15.0915C200.826 15.2443 201.044 15.7594 201.074 15.8322C201.074 15.8322 201.074 15.8323 201.075 15.8323C201.077 15.8364 201.094 15.8648 201.147 15.9296C201.182 15.9725 201.221 16.0165 201.278 16.0808L201.278 16.0815C201.33 16.1404 201.399 16.2183 201.466 16.302C201.498 16.3405 201.529 16.379 201.56 16.4175C202.272 17.2943 202.974 18.1584 203.696 19.0057C204.355 19.7793 204.971 20.5836 205.551 21.3713C205.722 21.6027 205.858 21.8366 205.966 22.0265C205.996 22.0786 206.022 22.1264 206.048 22.171C206.123 22.3053 206.182 22.4109 206.25 22.5189C206.272 22.5534 206.291 22.5802 206.331 22.6338C206.35 22.6599 206.373 22.6923 206.404 22.735C206.476 22.8351 206.599 23.0078 206.697 23.2164C206.697 23.2159 206.706 23.2359 206.746 23.2894C206.766 23.316 206.789 23.3461 206.821 23.3854C206.829 23.3957 206.841 23.4108 206.855 23.4278C206.879 23.4576 206.908 23.4934 206.929 23.52L206.035 24.2337L206.929 23.52C207.153 23.8 207.194 24.092 207.202 24.2382C207.21 24.3922 207.188 24.5142 207.174 24.5773C207.147 24.7045 207.105 24.8008 207.088 24.8377C207.05 24.9242 207.007 24.997 206.986 25.0334C206.935 25.1176 206.875 25.2063 206.829 25.2729C206.78 25.3442 206.731 25.4133 206.695 25.4634C206.665 25.504 206.654 25.5206 206.651 25.5237C206.499 25.7588 206.351 25.9841 206.206 26.2037C205.839 26.7594 205.496 27.279 205.179 27.8323C204.809 28.4781 204.446 29.0646 204.096 29.6292C203.502 30.5875 202.948 31.4827 202.466 32.4973C202.44 32.5522 202.411 32.62 202.366 32.7259L202.363 32.7341C202.323 32.8289 202.272 32.9514 202.214 33.0748C202.106 33.3076 201.915 33.6809 201.592 33.9842C201.589 33.9869 201.586 33.9902 201.582 33.994C201.487 34.0845 201.075 34.4793 200.44 34.4372C200.159 34.4185 199.946 34.319 199.844 34.2668C199.746 34.2167 199.651 34.1566 199.597 34.1224L199.589 34.1178L200.256 33.0606L199.589 34.1178C198.798 33.6186 198.31 32.7659 198.04 32.2944C198.01 32.2423 197.983 32.1949 197.958 32.1532C197.771 31.8358 197.621 31.5577 197.484 31.3044C197.227 30.8309 197.017 30.4441 196.706 30.0492C195.874 28.9929 195.103 27.8617 194.491 26.6097C194.429 26.4834 194.374 26.3526 194.333 26.2541L194.323 26.2295C194.282 26.132 194.251 26.057 194.218 25.9848C194.164 25.8668 194.133 25.8232 194.13 25.8178C193.641 25.3436 193.621 24.5628 194.089 24.0644C194.306 23.8336 194.59 23.7035 194.882 23.6759ZM198.619 16.1126C198.619 16.1125 198.619 16.1109 198.62 16.1081C198.619 16.1113 198.619 16.1127 198.619 16.1126ZM208.049 29.3735C207.975 29.5005 207.904 29.6242 207.837 29.7487C207.35 30.6459 206.954 31.5185 206.538 32.4335C206.271 33.019 205.997 33.6217 205.687 34.2593C205.431 34.7851 205.215 35.2564 205.048 35.7411C204.974 35.9582 204.845 36.1415 204.683 36.2813C204.69 36.2959 204.696 36.3092 204.702 36.3216C205.212 37.3649 205.873 38.3437 206.636 39.3117C207.081 39.8775 207.461 40.5739 207.768 41.1373C207.881 41.3457 207.985 41.536 208.078 41.6946L208.081 41.6993C208.152 41.8193 208.216 41.9277 208.274 42.0256C208.792 40.9728 209.439 39.9251 210.045 38.9422C210.376 38.4052 210.696 37.8875 210.976 37.3989C211.335 36.7729 211.744 36.153 212.126 35.5732C212.226 35.422 212.324 35.2734 212.418 35.1282C212.413 35.1174 212.408 35.1066 212.403 35.0957C212.402 35.0942 212.388 35.0703 212.341 35.0063C212.332 34.9939 212.323 34.9814 212.313 34.9677C212.308 34.9599 212.302 34.9517 212.295 34.9429C212.278 34.9198 212.259 34.8927 212.239 34.8647C212.199 34.8089 212.149 34.7385 212.1 34.6597C211.995 34.4935 211.895 34.315 211.814 34.171C211.794 34.1346 211.775 34.1003 211.757 34.069C211.658 33.8955 211.582 33.7696 211.504 33.6641C210.941 32.9 210.364 32.1473 209.758 31.4362C209.176 30.7531 208.608 30.061 208.049 29.3735ZM212.806 34.5585C212.806 34.5589 212.806 34.5594 212.806 34.56C212.808 34.5553 212.809 34.5545 212.806 34.5585ZM202.847 34.4856C203.031 34.0191 203.237 33.5809 203.439 33.165C203.687 32.6551 203.94 32.1028 204.199 31.534C204.65 30.5464 205.123 29.5092 205.639 28.5576C205.793 28.2724 205.96 27.9929 206.111 27.7389C206.129 27.7092 206.146 27.6798 206.164 27.6508C206.325 27.3799 206.469 27.1352 206.595 26.8931C206.596 26.8911 206.597 26.8887 206.598 26.8859C206.608 26.8573 206.631 26.792 206.653 26.738C206.667 26.7033 206.69 26.6483 206.721 26.5873C206.744 26.5434 206.811 26.4126 206.933 26.2799C207.002 26.2046 207.456 25.7237 208.174 25.9012C208.792 26.054 209.009 26.5692 209.04 26.6419C209.04 26.6419 209.04 26.642 209.04 26.642C209.043 26.6461 209.059 26.6745 209.113 26.7393C209.148 26.7822 209.187 26.8262 209.243 26.8905L209.244 26.8912C209.296 26.9501 209.364 27.028 209.432 27.1117L209.526 27.2273C210.238 28.1041 210.94 28.9681 211.661 29.8154C212.32 30.589 212.937 31.3934 213.517 32.181C213.688 32.4125 213.824 32.6463 213.932 32.8362C213.961 32.8883 213.988 32.9361 214.013 32.9807C214.089 33.115 214.148 33.2206 214.216 33.3286C214.237 33.3631 214.257 33.3899 214.296 33.4435C214.315 33.4696 214.339 33.502 214.37 33.5447C214.442 33.6448 214.564 33.8176 214.662 34.0261C214.662 34.0253 214.671 34.0452 214.711 34.0991C214.731 34.1257 214.755 34.1559 214.786 34.1951C214.809 34.2235 214.862 34.288 214.895 34.3297L213.918 35.1096L213.835 35.1757M213.918 35.1096L214.895 34.3298C215.118 34.6097 215.16 34.9017 215.168 35.048C215.176 35.202 215.154 35.3239 215.14 35.3871C215.112 35.5142 215.07 35.6105 215.054 35.6475C215.016 35.7339 214.973 35.8067 214.951 35.8431C214.901 35.9273 214.841 36.0161 214.795 36.0826C214.746 36.154 214.696 36.223 214.66 36.2731C214.631 36.3137 214.619 36.3303 214.617 36.3334C214.465 36.5686 214.316 36.7938 214.171 37.0134C213.805 37.5691 213.462 38.0887 213.145 38.642C212.775 39.2878 212.412 39.8743 212.062 40.4389C211.468 41.3972 210.913 42.2924 210.431 43.307C210.405 43.3619 210.377 43.4297 210.332 43.5356L210.329 43.5439C210.289 43.6387 210.237 43.7612 210.18 43.8845C210.071 44.1173 209.881 44.4907 209.558 44.7939C209.555 44.7966 209.552 44.7999 209.548 44.8038C209.453 44.8942 209.041 45.289 208.406 45.2469C208.125 45.2282 207.912 45.1288 207.81 45.0765C207.711 45.0264 207.616 44.9663 207.562 44.9321L207.555 44.9276C206.763 44.4284 206.275 43.5756 206.005 43.1041C205.976 43.052 205.948 43.0047 205.924 42.9629C205.737 42.6455 205.586 42.3675 205.449 42.1142C205.193 41.6407 204.983 41.2538 204.672 40.8589C203.84 39.8026 203.068 38.6714 202.456 37.4194C202.394 37.2931 202.34 37.1624 202.299 37.0638L202.289 37.0394C202.248 36.9418 202.217 36.8668 202.183 36.7945C202.129 36.6765 202.099 36.6329 202.096 36.6275C201.606 36.1534 201.586 35.3725 202.055 34.8741C202.271 34.6434 202.555 34.5132 202.847 34.4856M206.584 26.9223C206.584 26.922 206.585 26.9205 206.586 26.9179C206.585 26.9213 206.584 26.9227 206.584 26.9223Z" fill="#9747FF"/>
<g filter="url(#filter0_d_371_124)">
<path d="M200.125 189.066L196 167L214.414 178.289L205.187 180.39L200.125 189.066Z" fill="#A960F8"/>
</g>
<g filter="url(#filter1_d_371_124)">
<path fill-rule="evenodd" clip-rule="evenodd" d="M205.187 180.39L214.414 178.289L196 167L200.125 189.066L205.187 180.39ZM200.676 185.89L204.462 179.402L211.473 177.805L197.571 169.283L200.676 185.89Z" fill="white"/>
</g>
<rect width="69" height="20.7456" transform="translate(211 189.254)" fill="#A960F8"/>
<path d="M270.196 203.488C269.781 203.488 269.406 203.411 269.071 203.258C268.736 203.102 268.47 202.876 268.274 202.58C268.081 202.285 267.984 201.923 267.984 201.494C267.984 201.124 268.055 200.82 268.197 200.582C268.339 200.343 268.531 200.154 268.772 200.015C269.014 199.876 269.284 199.771 269.582 199.7C269.88 199.629 270.184 199.575 270.494 199.538C270.886 199.492 271.204 199.455 271.449 199.427C271.693 199.396 271.87 199.346 271.981 199.278C272.092 199.21 272.147 199.099 272.147 198.945V198.916C272.147 198.543 272.042 198.255 271.832 198.05C271.625 197.846 271.315 197.744 270.903 197.744C270.474 197.744 270.136 197.839 269.889 198.029C269.645 198.217 269.476 198.425 269.382 198.656L268.184 198.383C268.326 197.985 268.534 197.664 268.807 197.42C269.082 197.173 269.399 196.994 269.757 196.883C270.115 196.769 270.491 196.712 270.886 196.712C271.147 196.712 271.424 196.744 271.717 196.806C272.013 196.866 272.288 196.977 272.544 197.139C272.802 197.3 273.014 197.532 273.179 197.833C273.343 198.131 273.426 198.519 273.426 198.996V203.343H272.182V202.448H272.13C272.048 202.613 271.924 202.775 271.76 202.934C271.595 203.093 271.383 203.225 271.125 203.33C270.866 203.435 270.557 203.488 270.196 203.488ZM270.473 202.465C270.825 202.465 271.126 202.396 271.376 202.256C271.629 202.117 271.821 201.935 271.951 201.711C272.085 201.484 272.152 201.241 272.152 200.982V200.139C272.106 200.184 272.018 200.227 271.888 200.266C271.76 200.303 271.613 200.336 271.449 200.364C271.284 200.39 271.123 200.414 270.967 200.437C270.811 200.457 270.68 200.474 270.575 200.488C270.328 200.519 270.102 200.572 269.897 200.646C269.696 200.72 269.534 200.826 269.412 200.965C269.292 201.102 269.233 201.283 269.233 201.511C269.233 201.826 269.349 202.065 269.582 202.227C269.815 202.386 270.112 202.465 270.473 202.465Z" fill="white"/>
<path d="M265.228 203.343V196.798H266.502V203.343H265.228ZM265.871 195.788C265.65 195.788 265.459 195.714 265.3 195.566C265.144 195.416 265.066 195.237 265.066 195.029C265.066 194.819 265.144 194.64 265.3 194.492C265.459 194.342 265.65 194.266 265.871 194.266C266.093 194.266 266.282 194.342 266.438 194.492C266.597 194.64 266.677 194.819 266.677 195.029C266.677 195.237 266.597 195.416 266.438 195.566C266.282 195.714 266.093 195.788 265.871 195.788Z" fill="white"/>
<path d="M263.624 198.396L262.469 198.6C262.421 198.452 262.344 198.312 262.239 198.178C262.137 198.045 261.997 197.935 261.821 197.85C261.645 197.765 261.425 197.722 261.161 197.722C260.8 197.722 260.499 197.803 260.257 197.965C260.016 198.124 259.895 198.33 259.895 198.583C259.895 198.802 259.976 198.978 260.138 199.112C260.3 199.245 260.561 199.354 260.922 199.44L261.962 199.678C262.564 199.818 263.013 200.032 263.309 200.322C263.604 200.612 263.752 200.988 263.752 201.451C263.752 201.843 263.638 202.193 263.411 202.499C263.186 202.803 262.872 203.042 262.469 203.215C262.068 203.389 261.604 203.475 261.076 203.475C260.343 203.475 259.745 203.319 259.282 203.006C258.818 202.691 258.534 202.244 258.429 201.664L259.661 201.477C259.738 201.798 259.895 202.041 260.134 202.205C260.372 202.367 260.684 202.448 261.067 202.448C261.485 202.448 261.818 202.362 262.068 202.188C262.318 202.012 262.443 201.798 262.443 201.545C262.443 201.34 262.367 201.168 262.213 201.029C262.063 200.89 261.831 200.785 261.519 200.714L260.411 200.471C259.8 200.332 259.348 200.11 259.056 199.806C258.766 199.502 258.621 199.117 258.621 198.651C258.621 198.265 258.729 197.927 258.945 197.637C259.161 197.347 259.459 197.121 259.84 196.96C260.22 196.795 260.657 196.712 261.148 196.712C261.855 196.712 262.412 196.866 262.818 197.173C263.225 197.477 263.493 197.884 263.624 198.396Z" fill="white"/>
<path d="M253.717 203.488C253.302 203.488 252.927 203.411 252.592 203.258C252.257 203.102 251.991 202.876 251.795 202.58C251.602 202.285 251.505 201.923 251.505 201.494C251.505 201.124 251.576 200.82 251.718 200.582C251.86 200.343 252.052 200.154 252.294 200.015C252.535 199.876 252.805 199.771 253.103 199.7C253.402 199.629 253.706 199.575 254.015 199.538C254.407 199.492 254.725 199.455 254.97 199.427C255.214 199.396 255.392 199.346 255.502 199.278C255.613 199.21 255.669 199.099 255.669 198.945V198.916C255.669 198.543 255.563 198.255 255.353 198.05C255.146 197.846 254.836 197.744 254.424 197.744C253.995 197.744 253.657 197.839 253.41 198.029C253.166 198.217 252.997 198.425 252.903 198.656L251.706 198.383C251.848 197.985 252.055 197.664 252.328 197.42C252.603 197.173 252.92 196.994 253.278 196.883C253.636 196.769 254.012 196.712 254.407 196.712C254.669 196.712 254.946 196.744 255.238 196.806C255.534 196.866 255.809 196.977 256.065 197.139C256.323 197.3 256.535 197.532 256.7 197.833C256.865 198.131 256.947 198.519 256.947 198.996V203.343H255.703V202.448H255.652C255.569 202.613 255.446 202.775 255.281 202.934C255.116 203.093 254.904 203.225 254.646 203.33C254.387 203.435 254.078 203.488 253.717 203.488ZM253.994 202.465C254.346 202.465 254.647 202.396 254.897 202.256C255.15 202.117 255.342 201.935 255.473 201.711C255.606 201.484 255.673 201.241 255.673 200.982V200.139C255.627 200.184 255.539 200.227 255.409 200.266C255.281 200.303 255.134 200.336 254.97 200.364C254.805 200.39 254.644 200.414 254.488 200.437C254.332 200.457 254.201 200.474 254.096 200.488C253.849 200.519 253.623 200.572 253.419 200.646C253.217 200.72 253.055 200.826 252.933 200.965C252.813 201.102 252.754 201.283 252.754 201.511C252.754 201.826 252.87 202.065 253.103 202.227C253.336 202.386 253.633 202.465 253.994 202.465Z" fill="white"/>
<path d="M250.328 196.798V197.82H246.752V196.798H250.328ZM247.711 195.229H248.985V201.421C248.985 201.668 249.022 201.854 249.096 201.979C249.17 202.102 249.265 202.185 249.382 202.231C249.501 202.273 249.63 202.295 249.769 202.295C249.872 202.295 249.961 202.288 250.038 202.273C250.115 202.259 250.174 202.248 250.217 202.239L250.447 203.292C250.373 203.32 250.268 203.349 250.132 203.377C249.995 203.408 249.825 203.425 249.62 203.428C249.285 203.434 248.972 203.374 248.683 203.249C248.393 203.124 248.159 202.931 247.98 202.67C247.801 202.408 247.711 202.08 247.711 201.685V195.229Z" fill="white"/>
<path d="M245.668 198.396L244.514 198.6C244.465 198.452 244.389 198.312 244.283 198.178C244.181 198.045 244.042 197.935 243.866 197.85C243.69 197.765 243.47 197.722 243.205 197.722C242.845 197.722 242.543 197.803 242.302 197.965C242.06 198.124 241.94 198.33 241.94 198.583C241.94 198.802 242.021 198.978 242.183 199.112C242.345 199.245 242.606 199.354 242.967 199.44L244.006 199.678C244.609 199.818 245.058 200.032 245.353 200.322C245.649 200.612 245.796 200.988 245.796 201.451C245.796 201.843 245.683 202.193 245.455 202.499C245.231 202.803 244.917 203.042 244.514 203.215C244.113 203.389 243.649 203.475 243.12 203.475C242.387 203.475 241.789 203.319 241.326 203.006C240.863 202.691 240.579 202.244 240.474 201.664L241.705 201.477C241.782 201.798 241.94 202.041 242.178 202.205C242.417 202.367 242.728 202.448 243.112 202.448C243.529 202.448 243.863 202.362 244.113 202.188C244.363 202.012 244.488 201.798 244.488 201.545C244.488 201.34 244.411 201.168 244.258 201.029C244.107 200.89 243.876 200.785 243.563 200.714L242.455 200.471C241.845 200.332 241.393 200.11 241.1 199.806C240.81 199.502 240.666 199.117 240.666 198.651C240.666 198.265 240.774 197.927 240.989 197.637C241.205 197.347 241.504 197.121 241.884 196.96C242.265 196.795 242.701 196.712 243.193 196.712C243.9 196.712 244.457 196.866 244.863 197.173C245.269 197.477 245.538 197.884 245.668 198.396Z" fill="white"/>
<path d="M235.761 203.488C235.347 203.488 234.972 203.411 234.636 203.258C234.301 203.102 234.036 202.876 233.84 202.58C233.646 202.285 233.55 201.923 233.55 201.494C233.55 201.124 233.621 200.82 233.763 200.582C233.905 200.343 234.097 200.154 234.338 200.015C234.58 199.876 234.849 199.771 235.148 199.7C235.446 199.629 235.75 199.575 236.06 199.538C236.452 199.492 236.77 199.455 237.014 199.427C237.259 199.396 237.436 199.346 237.547 199.278C237.658 199.21 237.713 199.099 237.713 198.945V198.916C237.713 198.543 237.608 198.255 237.398 198.05C237.19 197.846 236.881 197.744 236.469 197.744C236.04 197.744 235.702 197.839 235.455 198.029C235.21 198.217 235.041 198.425 234.947 198.656L233.75 198.383C233.892 197.985 234.099 197.664 234.372 197.42C234.648 197.173 234.965 196.994 235.322 196.883C235.68 196.769 236.057 196.712 236.452 196.712C236.713 196.712 236.99 196.744 237.283 196.806C237.578 196.866 237.854 196.977 238.109 197.139C238.368 197.3 238.58 197.532 238.744 197.833C238.909 198.131 238.992 198.519 238.992 198.996V203.343H237.747V202.448H237.696C237.614 202.613 237.49 202.775 237.325 202.934C237.161 203.093 236.949 203.225 236.69 203.33C236.432 203.435 236.122 203.488 235.761 203.488ZM236.038 202.465C236.391 202.465 236.692 202.396 236.942 202.256C237.195 202.117 237.386 201.935 237.517 201.711C237.651 201.484 237.717 201.241 237.717 200.982V200.139C237.672 200.184 237.584 200.227 237.453 200.266C237.325 200.303 237.179 200.336 237.014 200.364C236.849 200.39 236.689 200.414 236.533 200.437C236.376 200.457 236.246 200.474 236.141 200.488C235.893 200.519 235.668 200.572 235.463 200.646C235.261 200.72 235.099 200.826 234.977 200.965C234.858 201.102 234.798 201.283 234.798 201.511C234.798 201.826 234.915 202.065 235.148 202.227C235.381 202.386 235.678 202.465 236.038 202.465Z" fill="white"/>
<path d="M227.884 199.457V203.343H226.61V196.798H227.833V197.863H227.914C228.064 197.516 228.3 197.238 228.621 197.028C228.945 196.818 229.353 196.712 229.844 196.712C230.29 196.712 230.681 196.806 231.016 196.994C231.351 197.178 231.611 197.454 231.796 197.82C231.98 198.187 232.073 198.64 232.073 199.18V203.343H230.799V199.333C230.799 198.859 230.675 198.488 230.428 198.221C230.181 197.951 229.841 197.816 229.409 197.816C229.114 197.816 228.851 197.88 228.621 198.008C228.394 198.136 228.213 198.323 228.08 198.57C227.949 198.815 227.884 199.11 227.884 199.457Z" fill="white"/>
<path d="M218.972 203.343H217.574L220.715 194.616H222.236L225.377 203.343H223.979L221.512 196.201H221.443L218.972 203.343ZM219.206 199.925H223.74V201.033H219.206V199.925Z" fill="white"/>
<defs>
<filter id="filter0_d_371_124" x="194" y="166" width="22.4143" height="26.0658" filterUnits="userSpaceOnUse" color-interpolation-filters="sRGB">
<feFlood flood-opacity="0" result="BackgroundImageFix"/>
<feColorMatrix in="SourceAlpha" type="matrix" values="0 0 0 0 0 0 0 0 0 0 0 0 0 0 0 0 0 0 127 0" result="hardAlpha"/>
<feOffset dy="1"/>
<feGaussianBlur stdDeviation="1"/>
<feComposite in2="hardAlpha" operator="out"/>
<feColorMatrix type="matrix" values="0 0 0 0 0 0 0 0 0 0 0 0 0 0 0 0 0 0 0.25 0"/>
<feBlend mode="normal" in2="BackgroundImageFix" result="effect1_dropShadow_371_124"/>
<feBlend mode="normal" in="SourceGraphic" in2="effect1_dropShadow_371_124" result="shape"/>
</filter>
<filter id="filter1_d_371_124" x="194" y="166" width="22.4143" height="26.0658" filterUnits="userSpaceOnUse" color-interpolation-filters="sRGB">
<feFlood flood-opacity="0" result="BackgroundImageFix"/>
<feColorMatrix in="SourceAlpha" type="matrix" values="0 0 0 0 0 0 0 0 0 0 0 0 0 0 0 0 0 0 127 0" result="hardAlpha"/>
<feOffset dy="1"/>
<feGaussianBlur stdDeviation="1"/>
<feComposite in2="hardAlpha" operator="out"/>
<feColorMatrix type="matrix" values="0 0 0 0 0 0 0 0 0 0 0 0 0 0 0 0 0 0 0.25 0"/>
<feBlend mode="normal" in2="BackgroundImageFix" result="effect1_dropShadow_371_124"/>
<feBlend mode="normal" in="SourceGraphic" in2="effect1_dropShadow_371_124" result="shape"/>
</filter>
</defs>
</svg>
